<?xml version="1.0" encoding="UTF-8"?>
<svg width="60px" height="60px" viewBox="0 0 60 60" version="1.1" xmlns="http://www.w3.org/2000/svg" xmlns:xlink="http://www.w3.org/1999/xlink">
    <!-- Generator: Sketch 52.5 (67469) - http://www.bohemiancoding.com/sketch -->
    <title>-Symbols/Icons/Social/VK/1440/Normal</title>
    <desc>Created with Sketch.</desc>
    <g id="Activate" stroke="none" stroke-width="1" fill="none" fill-rule="evenodd">
        <g id="Activate-TV-Unauthorized-Sign-In-Email-1920" transform="translate(-930.000000, -739.000000)">
            <g id="Form" transform="translate(720.000000, 360.000000)">
                <g id="Social" transform="translate(40.000000, 341.000000)">
                    <g id="-Symbols/Icons/Social/1440/Google/Normal" transform="translate(170.000000, 38.000000)">
                        <circle id="Oval" fill="#565C67" fill-rule="nonzero" opacity="0.400000006" cx="30" cy="30" r="30"></circle>
                        <g id="Group" stroke-width="1" fill-rule="evenodd" transform="translate(14.000000, 14.000000)" fill="#FFFFFF">
                            <path d="M30.8075188,18.8627068 C29.6356391,26.5610526 23.8960902,30.9744361 16.4652632,30.9744361 C8.11473684,30.9744361 1.34466165,24.2043609 1.34466165,15.8538346 C1.34466165,7.50541353 8.11473684,0.735338346 16.4652632,0.735338346 C20.5046617,0.735338346 24.0440602,2.17684211 26.6203008,4.67909774 L22.2809023,9.01849624 C20.8112782,7.53789474 18.8001504,6.7487218 16.4652632,6.7487218 C11.5497744,6.7487218 7.56466165,10.9403008 7.56466165,15.8536842 C7.56466165,20.7714286 11.5497744,24.8413534 16.4652632,24.8413534 C20.5851128,24.8413534 23.7049624,22.8499248 24.6049624,18.8627068 L16.4652632,18.8627068 L16.4652632,12.7905263 L30.7706767,12.7905263 C30.942406,13.7688722 31.0293233,14.792782 31.0293233,15.8536842 C31.0291729,16.906015 30.9530827,17.9082707 30.8075188,18.8627068 Z" id="Path" fill-rule="nonzero"></path>
                        </g>
                    </g>
                </g>
            </g>
        </g>
    </g>
</svg>