<?xml version="1.0" encoding="UTF-8"?>
<svg width="60px" height="60px" viewBox="0 0 60 60" version="1.1" xmlns="http://www.w3.org/2000/svg" xmlns:xlink="http://www.w3.org/1999/xlink">
    <!-- Generator: Sketch 52.5 (67469) - http://www.bohemiancoding.com/sketch -->
    <title>-Symbols/Icons/Social/VK/1440/Normal</title>
    <desc>Created with Sketch.</desc>
    <g id="Activate" stroke="none" stroke-width="1" fill="none" fill-rule="evenodd">
        <g id="Activate-TV-Unauthorized-Sign-In-Email-1920" transform="translate(-1015.000000, -739.000000)">
            <g id="Form" transform="translate(720.000000, 360.000000)">
                <g id="Social" transform="translate(40.000000, 341.000000)">
                    <g id="-Symbols/Icons/Social/1440/OK/Normal" transform="translate(255.000000, 38.000000)">
                        <circle id="Oval" fill="#565C67" fill-rule="nonzero" opacity="0.400000006" cx="30" cy="30" r="30"></circle>
                        <path d="M30,17.1428571 C32.2740344,17.1428571 34.125,18.8734383 34.125,21.00088 C34.125,23.125975 32.2740344,24.8571429 30,24.8571429 C27.7265928,24.8571429 25.875,23.125975 25.875,21.00088 C25.875,18.8734383 27.7265928,17.1428571 30,17.1428571 Z M30.000303,30 C24.6924342,30 20.375,25.9641103 20.375,21.0019834 C20.375,16.0375897 24.6924342,12 30.000303,12 C35.3081717,12 39.625,16.0375897 39.625,21.0019834 C39.625,25.9641103 35.3081717,30 30.000303,30 Z M33.9655173,38.3830319 L39.445254,43.4592613 C40.568725,44.4968015 40.568725,46.1817324 39.445254,47.2209874 C38.3242515,48.2596709 36.5062095,48.2596709 35.3867498,47.2209874 L29.9992729,42.2325059 L24.6158073,47.2209874 C24.0551518,47.7397575 23.3201592,47.9992854 22.584241,47.9992854 C21.8498656,47.9992854 21.1164158,47.7397575 20.5551432,47.2209874 C19.433215,46.1817324 19.433215,44.4979448 20.5539089,43.4592613 L26.0327199,38.3830319 C24.0381809,37.9620136 22.1133768,37.2297332 20.342236,36.1990528 C19.0003038,35.4161816 18.5967059,33.7749818 19.4418547,32.5313628 C20.2857693,31.2863146 22.0575272,30.9118855 23.4013108,31.6947567 C27.414148,34.032509 32.5831636,34.0336523 36.5984692,31.6947567 C37.9413272,30.9118855 39.7137021,31.2863146 40.5582339,32.5313628 C41.4033828,33.7738385 40.9994763,35.4161816 39.657544,36.1990528 C37.8864033,37.2305907 35.960982,37.9620136 33.9655173,38.3830319 Z" id="ok" fill="#FFFFFF" fill-rule="evenodd"></path>
                    </g>
                </g>
            </g>
        </g>
    </g>
</svg>