<?xml version="1.0" encoding="UTF-8"?>
<svg width="60px" height="60px" viewBox="0 0 60 60" version="1.1" xmlns="http://www.w3.org/2000/svg" xmlns:xlink="http://www.w3.org/1999/xlink">
    <!-- Generator: Sketch 52.5 (67469) - http://www.bohemiancoding.com/sketch -->
    <title>-Symbols/Icons/Social/VK/1440/Normal</title>
    <desc>Created with Sketch.</desc>
    <g id="Activate" stroke="none" stroke-width="1" fill="none" fill-rule="evenodd">
        <g id="Activate-TV-Unauthorized-Sign-In-Email-1920" transform="translate(-845.000000, -739.000000)">
            <g id="Form" transform="translate(720.000000, 360.000000)">
                <g id="Social" transform="translate(40.000000, 341.000000)">
                    <g id="-Symbols/Icons/Social/VK/1440/Normal" transform="translate(85.000000, 38.000000)">
                        <circle id="Oval" fill="#565C67" fill-rule="nonzero" opacity="0.400000006" cx="30" cy="30" r="30"></circle>
                        <path d="M40.90572,31.8062554 C40.90572,31.8062554 45.64917,25.4575388 46.1205236,23.3710908 C46.2775554,22.6259846 45.9320097,22.2084942 45.1151062,22.2084942 L41.0000437,22.2084942 C40.0575968,22.2084942 39.7120511,22.5959846 39.4293448,23.1623456 C39.4293448,23.1623456 37.2044625,27.6604725 34.4973788,30.4949139 C33.6283547,31.4112333 33.1865011,31.6870078 32.7068107,31.6870078 C32.3198592,31.6870078 32.1413979,31.3809825 32.1413979,30.5544118 L32.1413979,23.3114672 C32.1413979,22.2981178 32.0157192,22 31.1362449,22 L24.5393896,22 C24.036681,22 23.7224883,22.2772809 23.7224883,22.6556081 C23.7224883,23.6099616 25.2618341,23.8254851 25.2618341,26.4112649 L25.2618341,31.7466321 C25.2618341,32.8197301 25.1989958,33.2369701 24.664934,33.2369701 C23.2513981,33.2369701 19.8901311,28.6170853 18.0053721,23.3710908 C17.6283411,22.2981178 17.2199565,22 16.151834,22 L12.0367697,22 C11.4398698,22 11,22.3873648 11,22.9536004 C11,23.9968243 12.2879916,28.8255793 17.3456337,35.2936684 C20.7382533,39.6453104 25.1989958,42 29.2198691,42 C31.6701735,42 32.2670745,41.6126354 32.2670745,40.6289106 L32.2670745,37.2906188 C32.2670745,36.4560142 32.6126203,36.0983985 33.1151958,36.0983985 C33.6806106,36.0983985 34.6786196,36.2707421 37.0105245,38.4530901 C39.7748904,40.9569018 39.9634064,42 41.4713993,42 L46.0890374,42 C46.5602617,42 47,41.7913819 47,41.0462751 C47,40.0625484 45.64917,38.3040944 43.5758936,36.2175197 C42.7277723,35.1445472 41.3455894,33.9822014 40.90572,33.4457147 C40.2775991,32.8197301 40.4659819,32.4618635 40.90572,31.8062554" id="VK" fill="#FFFFFF" fill-rule="evenodd"></path>
                    </g>
                </g>
            </g>
        </g>
    </g>
</svg>