<?xml version="1.0" encoding="UTF-8"?>
<svg width="60px" height="60px" viewBox="0 0 60 60" version="1.1" xmlns="http://www.w3.org/2000/svg" xmlns:xlink="http://www.w3.org/1999/xlink">
    <!-- Generator: Sketch 52.5 (67469) - http://www.bohemiancoding.com/sketch -->
    <title>-Symbols/Icons/Social/VK/1440/Normal</title>
    <desc>Created with Sketch.</desc>
    <g id="Activate" stroke="none" stroke-width="1" fill="none" fill-rule="evenodd">
        <g id="Activate-TV-Unauthorized-Sign-In-Email-1920" transform="translate(-1100.000000, -739.000000)" fill-rule="nonzero">
            <g id="Form" transform="translate(720.000000, 360.000000)">
                <g id="Social" transform="translate(40.000000, 341.000000)">
                    <g id="-Symbols/Icons/Social/1440/Yandex/Normal" transform="translate(340.000000, 38.000000)">
                        <circle id="Oval" fill="#565C67" opacity="0.400000006" cx="30" cy="30" r="30"></circle>
                        <path d="M38,14 L31.748561,14 C26.9375675,14 22.0830328,17.401375 22.0830328,25.000375 C22.0830328,28.9365 23.8253934,32.0020625 27.019362,33.7455 L20,46 L26.42311,46 L32.3041502,34.88 L32.7041796,34.88 L32.7041796,46 L38,46 L38,14 Z M32.6941095,30.3231875 L31.988444,30.3231875 C29.2522767,30.3231875 27.6188014,28.1848125 27.6188014,24.603 C27.6188014,20.1493125 29.6822691,18.5625 31.6134817,18.5625 L32.6941095,18.5625 L32.6941095,30.3231875 Z" id="Yandex" fill="#FFFFFF"></path>
                    </g>
                </g>
            </g>
        </g>
    </g>
</svg>